<?xml version="1.0" encoding="UTF-8" standalone="no"?>
<!DOCTYPE svg PUBLIC "-//W3C//DTD SVG 1.1//EN"
 "http://www.w3.org/Graphics/SVG/1.1/DTD/svg11.dtd">
<!-- Generated by graphviz version 2.47.3 (20210619.1520)
 -->
<!-- Title: dependencies Pages: 1 -->
<svg width="2177pt" height="247pt"
 viewBox="0.00 0.00 2177.00 246.80" xmlns="http://www.w3.org/2000/svg" xmlns:xlink="http://www.w3.org/1999/xlink">
<g id="graph0" class="graph" transform="scale(1 1) rotate(0) translate(4 242.8)">
<title>dependencies</title>
<polygon fill="white" stroke="transparent" points="-4,4 -4,-242.8 2173,-242.8 2173,4 -4,4"/>
<text text-anchor="middle" x="1084.5" y="-8.2" font-family="sans-serif" font-size="14.00">dependencies</text>
<g id="clust1" class="cluster">
<title>cluster_AppModule</title>
<polygon fill="none" stroke="black" stroke-dasharray="1,5" points="8,-32.8 8,-230.8 2161,-230.8 2161,-32.8 8,-32.8"/>
</g>
<g id="clust17" class="cluster">
<title>cluster_AppModule_imports</title>
<polygon fill="none" stroke="black" points="2009,-40.8 2009,-92.8 2153,-92.8 2153,-40.8 2009,-40.8"/>
</g>
<g id="clust19" class="cluster">
<title>cluster_AppModule_bootstrap</title>
<polygon fill="none" stroke="black" points="1094,-170.8 1094,-222.8 1218,-222.8 1218,-170.8 1094,-170.8"/>
</g>
<g id="clust2" class="cluster">
<title>cluster_AppModule_declarations</title>
<polygon fill="none" stroke="black" points="16,-40.8 16,-92.8 2001,-92.8 2001,-40.8 16,-40.8"/>
</g>
<!-- AlertComponent -->
<g id="node1" class="node">
<title>AlertComponent</title>
<polygon fill="#ffffb3" stroke="black" points="1993.1,-84.8 1882.9,-84.8 1882.9,-48.8 1993.1,-48.8 1993.1,-84.8"/>
<text text-anchor="middle" x="1938" y="-62.6" font-family="Times,serif" font-size="14.00">AlertComponent</text>
</g>
<!-- AppModule -->
<g id="node15" class="node">
<title>AppModule</title>
<polygon fill="#8dd3c7" stroke="black" points="1197.66,-149.8 1194.66,-153.8 1173.66,-153.8 1170.66,-149.8 1114.34,-149.8 1114.34,-113.8 1197.66,-113.8 1197.66,-149.8"/>
<text text-anchor="middle" x="1156" y="-127.6" font-family="Times,serif" font-size="14.00">AppModule</text>
</g>
<!-- AlertComponent&#45;&gt;AppModule -->
<g id="edge1" class="edge">
<title>AlertComponent&#45;&gt;AppModule</title>
<path fill="none" stroke="black" d="M1938,-85.09C1938,-107.01 1938,-140.8 1938,-140.8 1938,-140.8 1207.77,-140.8 1207.77,-140.8"/>
<polygon fill="black" stroke="black" points="1207.77,-137.3 1197.77,-140.8 1207.77,-144.3 1207.77,-137.3"/>
</g>
<!-- AppComponent -->
<g id="node2" class="node">
<title>AppComponent</title>
<polygon fill="#ffffb3" stroke="black" points="1864.94,-84.8 1759.06,-84.8 1759.06,-48.8 1864.94,-48.8 1864.94,-84.8"/>
<text text-anchor="middle" x="1812" y="-62.6" font-family="Times,serif" font-size="14.00">AppComponent</text>
</g>
<!-- AppComponent&#45;&gt;AppModule -->
<g id="edge2" class="edge">
<title>AppComponent&#45;&gt;AppModule</title>
<path fill="none" stroke="black" d="M1812,-84.83C1812,-105.57 1812,-136.8 1812,-136.8 1812,-136.8 1207.78,-136.8 1207.78,-136.8"/>
<polygon fill="black" stroke="black" points="1207.78,-133.3 1197.78,-136.8 1207.78,-140.3 1207.78,-133.3"/>
</g>
<!-- FeedComponent -->
<g id="node3" class="node">
<title>FeedComponent</title>
<polygon fill="#ffffb3" stroke="black" points="1741.05,-84.8 1632.95,-84.8 1632.95,-48.8 1741.05,-48.8 1741.05,-84.8"/>
<text text-anchor="middle" x="1687" y="-62.6" font-family="Times,serif" font-size="14.00">FeedComponent</text>
</g>
<!-- FeedComponent&#45;&gt;AppModule -->
<g id="edge3" class="edge">
<title>FeedComponent&#45;&gt;AppModule</title>
<path fill="none" stroke="black" d="M1687,-84.91C1687,-104.14 1687,-131.8 1687,-131.8 1687,-131.8 1207.67,-131.8 1207.67,-131.8"/>
<polygon fill="black" stroke="black" points="1207.67,-128.3 1197.67,-131.8 1207.67,-135.3 1207.67,-128.3"/>
</g>
<!-- FooterComponent -->
<g id="node4" class="node">
<title>FooterComponent</title>
<polygon fill="#ffffb3" stroke="black" points="1614.88,-84.8 1497.12,-84.8 1497.12,-48.8 1614.88,-48.8 1614.88,-84.8"/>
<text text-anchor="middle" x="1556" y="-62.6" font-family="Times,serif" font-size="14.00">FooterComponent</text>
</g>
<!-- FooterComponent&#45;&gt;AppModule -->
<g id="edge4" class="edge">
<title>FooterComponent&#45;&gt;AppModule</title>
<path fill="none" stroke="black" d="M1556,-85.1C1556,-103.07 1556,-127.8 1556,-127.8 1556,-127.8 1207.68,-127.8 1207.68,-127.8"/>
<polygon fill="black" stroke="black" points="1207.68,-124.3 1197.68,-127.8 1207.67,-131.3 1207.68,-124.3"/>
</g>
<!-- HomeComponent -->
<g id="node5" class="node">
<title>HomeComponent</title>
<polygon fill="#ffffb3" stroke="black" points="1478.55,-84.8 1363.45,-84.8 1363.45,-48.8 1478.55,-48.8 1478.55,-84.8"/>
<text text-anchor="middle" x="1421" y="-62.6" font-family="Times,serif" font-size="14.00">HomeComponent</text>
</g>
<!-- HomeComponent&#45;&gt;AppModule -->
<g id="edge5" class="edge">
<title>HomeComponent&#45;&gt;AppModule</title>
<path fill="none" stroke="black" d="M1421,-84.83C1421,-101.2 1421,-122.8 1421,-122.8 1421,-122.8 1207.7,-122.8 1207.7,-122.8"/>
<polygon fill="black" stroke="black" points="1207.7,-119.3 1197.7,-122.8 1207.7,-126.3 1207.7,-119.3"/>
</g>
<!-- LoginComponent -->
<g id="node6" class="node">
<title>LoginComponent</title>
<polygon fill="#ffffb3" stroke="black" points="1345.28,-84.8 1230.72,-84.8 1230.72,-48.8 1345.28,-48.8 1345.28,-84.8"/>
<text text-anchor="middle" x="1288" y="-62.6" font-family="Times,serif" font-size="14.00">LoginComponent</text>
</g>
<!-- LoginComponent&#45;&gt;AppModule -->
<g id="edge6" class="edge">
<title>LoginComponent&#45;&gt;AppModule</title>
<path fill="none" stroke="black" d="M1288,-84.99C1288,-99.98 1288,-118.8 1288,-118.8 1288,-118.8 1207.77,-118.8 1207.77,-118.8"/>
<polygon fill="black" stroke="black" points="1207.77,-115.3 1197.77,-118.8 1207.77,-122.3 1207.77,-115.3"/>
</g>
<!-- MenuComponent -->
<g id="node7" class="node">
<title>MenuComponent</title>
<polygon fill="#ffffb3" stroke="black" points="1212.99,-84.8 1099.01,-84.8 1099.01,-48.8 1212.99,-48.8 1212.99,-84.8"/>
<text text-anchor="middle" x="1156" y="-62.6" font-family="Times,serif" font-size="14.00">MenuComponent</text>
</g>
<!-- MenuComponent&#45;&gt;AppModule -->
<g id="edge7" class="edge">
<title>MenuComponent&#45;&gt;AppModule</title>
<path fill="none" stroke="black" d="M1156,-84.91C1156,-84.91 1156,-103.79 1156,-103.79"/>
<polygon fill="black" stroke="black" points="1152.5,-103.79 1156,-113.79 1159.5,-103.79 1152.5,-103.79"/>
</g>
<!-- PostDeleteComponent -->
<g id="node8" class="node">
<title>PostDeleteComponent</title>
<polygon fill="#ffffb3" stroke="black" points="1080.98,-84.8 939.02,-84.8 939.02,-48.8 1080.98,-48.8 1080.98,-84.8"/>
<text text-anchor="middle" x="1010" y="-62.6" font-family="Times,serif" font-size="14.00">PostDeleteComponent</text>
</g>
<!-- PostDeleteComponent&#45;&gt;AppModule -->
<g id="edge8" class="edge">
<title>PostDeleteComponent&#45;&gt;AppModule</title>
<path fill="none" stroke="black" d="M1010,-84.99C1010,-99.98 1010,-118.8 1010,-118.8 1010,-118.8 1104.16,-118.8 1104.16,-118.8"/>
<polygon fill="black" stroke="black" points="1104.16,-122.3 1114.16,-118.8 1104.16,-115.3 1104.16,-122.3"/>
</g>
<!-- PostEditComponent -->
<g id="node9" class="node">
<title>PostEditComponent</title>
<polygon fill="#ffffb3" stroke="black" points="921.28,-84.8 792.72,-84.8 792.72,-48.8 921.28,-48.8 921.28,-84.8"/>
<text text-anchor="middle" x="857" y="-62.6" font-family="Times,serif" font-size="14.00">PostEditComponent</text>
</g>
<!-- PostEditComponent&#45;&gt;AppModule -->
<g id="edge9" class="edge">
<title>PostEditComponent&#45;&gt;AppModule</title>
<path fill="none" stroke="black" d="M857,-84.83C857,-101.2 857,-122.8 857,-122.8 857,-122.8 1104.11,-122.8 1104.11,-122.8"/>
<polygon fill="black" stroke="black" points="1104.11,-126.3 1114.11,-122.8 1104.11,-119.3 1104.11,-126.3"/>
</g>
<!-- RegisterComponent -->
<g id="node10" class="node">
<title>RegisterComponent</title>
<polygon fill="#ffffb3" stroke="black" points="774.98,-84.8 647.02,-84.8 647.02,-48.8 774.98,-48.8 774.98,-84.8"/>
<text text-anchor="middle" x="711" y="-62.6" font-family="Times,serif" font-size="14.00">RegisterComponent</text>
</g>
<!-- RegisterComponent&#45;&gt;AppModule -->
<g id="edge10" class="edge">
<title>RegisterComponent&#45;&gt;AppModule</title>
<path fill="none" stroke="black" d="M711,-85.1C711,-103.07 711,-127.8 711,-127.8 711,-127.8 1104.14,-127.8 1104.14,-127.8"/>
<polygon fill="black" stroke="black" points="1104.14,-131.3 1114.14,-127.8 1104.14,-124.3 1104.14,-131.3"/>
</g>
<!-- ThemeComponent -->
<g id="node11" class="node">
<title>ThemeComponent</title>
<polygon fill="#ffffb3" stroke="black" points="629.2,-84.8 508.8,-84.8 508.8,-48.8 629.2,-48.8 629.2,-84.8"/>
<text text-anchor="middle" x="569" y="-62.6" font-family="Times,serif" font-size="14.00">ThemeComponent</text>
</g>
<!-- ThemeComponent&#45;&gt;AppModule -->
<g id="edge11" class="edge">
<title>ThemeComponent&#45;&gt;AppModule</title>
<path fill="none" stroke="black" d="M569,-84.91C569,-104.14 569,-131.8 569,-131.8 569,-131.8 1104.25,-131.8 1104.25,-131.8"/>
<polygon fill="black" stroke="black" points="1104.26,-135.3 1114.25,-131.8 1104.25,-128.3 1104.26,-135.3"/>
</g>
<!-- ThemeDeleteComponent -->
<g id="node12" class="node">
<title>ThemeDeleteComponent</title>
<polygon fill="#ffffb3" stroke="black" points="491.24,-84.8 334.76,-84.8 334.76,-48.8 491.24,-48.8 491.24,-84.8"/>
<text text-anchor="middle" x="413" y="-62.6" font-family="Times,serif" font-size="14.00">ThemeDeleteComponent</text>
</g>
<!-- ThemeDeleteComponent&#45;&gt;AppModule -->
<g id="edge12" class="edge">
<title>ThemeDeleteComponent&#45;&gt;AppModule</title>
<path fill="none" stroke="black" d="M413,-84.83C413,-105.57 413,-136.8 413,-136.8 413,-136.8 1104.19,-136.8 1104.19,-136.8"/>
<polygon fill="black" stroke="black" points="1104.19,-140.3 1114.19,-136.8 1104.19,-133.3 1104.19,-140.3"/>
</g>
<!-- ThemeEditComponent -->
<g id="node13" class="node">
<title>ThemeEditComponent</title>
<polygon fill="#ffffb3" stroke="black" points="316.54,-84.8 173.46,-84.8 173.46,-48.8 316.54,-48.8 316.54,-84.8"/>
<text text-anchor="middle" x="245" y="-62.6" font-family="Times,serif" font-size="14.00">ThemeEditComponent</text>
</g>
<!-- ThemeEditComponent&#45;&gt;AppModule -->
<g id="edge13" class="edge">
<title>ThemeEditComponent&#45;&gt;AppModule</title>
<path fill="none" stroke="black" d="M245,-85.09C245,-107.01 245,-140.8 245,-140.8 245,-140.8 1104.19,-140.8 1104.19,-140.8"/>
<polygon fill="black" stroke="black" points="1104.19,-144.3 1114.19,-140.8 1104.19,-137.3 1104.19,-144.3"/>
</g>
<!-- UserEditComponent -->
<g id="node14" class="node">
<title>UserEditComponent</title>
<polygon fill="#ffffb3" stroke="black" points="155.59,-84.8 24.41,-84.8 24.41,-48.8 155.59,-48.8 155.59,-84.8"/>
<text text-anchor="middle" x="90" y="-62.6" font-family="Times,serif" font-size="14.00">UserEditComponent</text>
</g>
<!-- UserEditComponent&#45;&gt;AppModule -->
<g id="edge14" class="edge">
<title>UserEditComponent&#45;&gt;AppModule</title>
<path fill="none" stroke="black" d="M90,-85.12C90,-108.46 90,-145.8 90,-145.8 90,-145.8 1104.21,-145.8 1104.21,-145.8"/>
<polygon fill="black" stroke="black" points="1104.21,-149.3 1114.21,-145.8 1104.21,-142.3 1104.21,-149.3"/>
</g>
<!-- AppComponent  -->
<g id="node17" class="node">
<title>AppComponent </title>
<polygon fill="#80b1d3" stroke="black" points="1210.44,-214.8 1101.56,-214.8 1101.56,-178.8 1210.44,-178.8 1210.44,-214.8"/>
<text text-anchor="middle" x="1156" y="-192.6" font-family="Times,serif" font-size="14.00">AppComponent </text>
</g>
<!-- AppModule&#45;&gt;AppComponent  -->
<g id="edge16" class="edge">
<title>AppModule&#45;&gt;AppComponent </title>
<path fill="none" stroke="black" stroke-dasharray="1,5" d="M1156,-149.91C1156,-149.91 1156,-168.79 1156,-168.79"/>
<polygon fill="black" stroke="black" points="1152.5,-168.79 1156,-178.79 1159.5,-168.79 1152.5,-168.79"/>
</g>
<!-- AppRoutingModule -->
<g id="node16" class="node">
<title>AppRoutingModule</title>
<polygon fill="#8dd3c7" stroke="black" points="2145.27,-84.8 2142.27,-88.8 2121.27,-88.8 2118.27,-84.8 2016.73,-84.8 2016.73,-48.8 2145.27,-48.8 2145.27,-84.8"/>
<text text-anchor="middle" x="2081" y="-62.6" font-family="Times,serif" font-size="14.00">AppRoutingModule</text>
</g>
<!-- AppRoutingModule&#45;&gt;AppModule -->
<g id="edge15" class="edge">
<title>AppRoutingModule&#45;&gt;AppModule</title>
<path fill="none" stroke="black" d="M2081,-85.12C2081,-108.46 2081,-145.8 2081,-145.8 2081,-145.8 1207.85,-145.8 1207.85,-145.8"/>
<polygon fill="black" stroke="black" points="1207.85,-142.3 1197.85,-145.8 1207.85,-149.3 1207.85,-142.3"/>
</g>
</g>
</svg>
