<?xml version="1.0" encoding="UTF-8" standalone="no"?>
<!DOCTYPE svg PUBLIC "-//W3C//DTD SVG 1.1//EN"
 "http://www.w3.org/Graphics/SVG/1.1/DTD/svg11.dtd">
<!-- Generated by graphviz version 2.47.3 (20210619.1520)
 -->
<!-- Title: dependencies Pages: 1 -->
<svg width="2177pt" height="247pt"
 viewBox="0.00 0.00 2177.00 246.80" xmlns="http://www.w3.org/2000/svg" xmlns:xlink="http://www.w3.org/1999/xlink">
<g id="graph0" class="graph" transform="scale(1 1) rotate(0) translate(4 242.8)">
<title>dependencies</title>
<polygon fill="white" stroke="transparent" points="-4,4 -4,-242.8 2173,-242.8 2173,4 -4,4"/>
<text text-anchor="middle" x="1084.5" y="-8.2" font-family="sans-serif" font-size="14.00">dependencies</text>
<g id="clust1" class="cluster">
<title>cluster_AppModule</title>
<polygon fill="none" stroke="black" stroke-dasharray="1,5" points="8,-32.8 8,-230.8 2161,-230.8 2161,-32.8 8,-32.8"/>
</g>
<g id="clust2" class="cluster">
<title>cluster_AppModule_declarations</title>
<polygon fill="none" stroke="black" points="168,-40.8 168,-92.8 2153,-92.8 2153,-40.8 168,-40.8"/>
</g>
<g id="clust17" class="cluster">
<title>cluster_AppModule_imports</title>
<polygon fill="none" stroke="black" points="16,-40.8 16,-92.8 160,-92.8 160,-40.8 16,-40.8"/>
</g>
<g id="clust19" class="cluster">
<title>cluster_AppModule_bootstrap</title>
<polygon fill="none" stroke="black" points="1100,-170.8 1100,-222.8 1224,-222.8 1224,-170.8 1100,-170.8"/>
</g>
<!-- AlertComponent -->
<g id="node1" class="node">
<title>AlertComponent</title>
<polygon fill="#ffffb3" stroke="black" points="2145.1,-84.8 2034.9,-84.8 2034.9,-48.8 2145.1,-48.8 2145.1,-84.8"/>
<text text-anchor="middle" x="2090" y="-62.6" font-family="Times,serif" font-size="14.00">AlertComponent</text>
</g>
<!-- AppModule -->
<g id="node15" class="node">
<title>AppModule</title>
<polygon fill="#8dd3c7" stroke="black" points="1203.66,-149.8 1200.66,-153.8 1179.66,-153.8 1176.66,-149.8 1120.34,-149.8 1120.34,-113.8 1203.66,-113.8 1203.66,-149.8"/>
<text text-anchor="middle" x="1162" y="-127.6" font-family="Times,serif" font-size="14.00">AppModule</text>
</g>
<!-- AlertComponent&#45;&gt;AppModule -->
<g id="edge1" class="edge">
<title>AlertComponent&#45;&gt;AppModule</title>
<path fill="none" stroke="black" d="M2090,-85.12C2090,-108.46 2090,-145.8 2090,-145.8 2090,-145.8 1213.68,-145.8 1213.68,-145.8"/>
<polygon fill="black" stroke="black" points="1213.68,-142.3 1203.68,-145.8 1213.68,-149.3 1213.68,-142.3"/>
</g>
<!-- AppComponent -->
<g id="node2" class="node">
<title>AppComponent</title>
<polygon fill="#ffffb3" stroke="black" points="2016.94,-84.8 1911.06,-84.8 1911.06,-48.8 2016.94,-48.8 2016.94,-84.8"/>
<text text-anchor="middle" x="1964" y="-62.6" font-family="Times,serif" font-size="14.00">AppComponent</text>
</g>
<!-- AppComponent&#45;&gt;AppModule -->
<g id="edge2" class="edge">
<title>AppComponent&#45;&gt;AppModule</title>
<path fill="none" stroke="black" d="M1964,-85.09C1964,-107.01 1964,-140.8 1964,-140.8 1964,-140.8 1213.71,-140.8 1213.71,-140.8"/>
<polygon fill="black" stroke="black" points="1213.71,-137.3 1203.71,-140.8 1213.71,-144.3 1213.71,-137.3"/>
</g>
<!-- FeedComponent -->
<g id="node3" class="node">
<title>FeedComponent</title>
<polygon fill="#ffffb3" stroke="black" points="1893.05,-84.8 1784.95,-84.8 1784.95,-48.8 1893.05,-48.8 1893.05,-84.8"/>
<text text-anchor="middle" x="1839" y="-62.6" font-family="Times,serif" font-size="14.00">FeedComponent</text>
</g>
<!-- FeedComponent&#45;&gt;AppModule -->
<g id="edge3" class="edge">
<title>FeedComponent&#45;&gt;AppModule</title>
<path fill="none" stroke="black" d="M1839,-84.83C1839,-105.57 1839,-136.8 1839,-136.8 1839,-136.8 1213.84,-136.8 1213.84,-136.8"/>
<polygon fill="black" stroke="black" points="1213.84,-133.3 1203.84,-136.8 1213.84,-140.3 1213.84,-133.3"/>
</g>
<!-- FooterComponent -->
<g id="node4" class="node">
<title>FooterComponent</title>
<polygon fill="#ffffb3" stroke="black" points="1766.88,-84.8 1649.12,-84.8 1649.12,-48.8 1766.88,-48.8 1766.88,-84.8"/>
<text text-anchor="middle" x="1708" y="-62.6" font-family="Times,serif" font-size="14.00">FooterComponent</text>
</g>
<!-- FooterComponent&#45;&gt;AppModule -->
<g id="edge4" class="edge">
<title>FooterComponent&#45;&gt;AppModule</title>
<path fill="none" stroke="black" d="M1708,-84.91C1708,-104.14 1708,-131.8 1708,-131.8 1708,-131.8 1213.94,-131.8 1213.94,-131.8"/>
<polygon fill="black" stroke="black" points="1213.94,-128.3 1203.94,-131.8 1213.94,-135.3 1213.94,-128.3"/>
</g>
<!-- HomeComponent -->
<g id="node5" class="node">
<title>HomeComponent</title>
<polygon fill="#ffffb3" stroke="black" points="1630.55,-84.8 1515.45,-84.8 1515.45,-48.8 1630.55,-48.8 1630.55,-84.8"/>
<text text-anchor="middle" x="1573" y="-62.6" font-family="Times,serif" font-size="14.00">HomeComponent</text>
</g>
<!-- HomeComponent&#45;&gt;AppModule -->
<g id="edge5" class="edge">
<title>HomeComponent&#45;&gt;AppModule</title>
<path fill="none" stroke="black" d="M1573,-85.1C1573,-103.07 1573,-127.8 1573,-127.8 1573,-127.8 1213.67,-127.8 1213.67,-127.8"/>
<polygon fill="black" stroke="black" points="1213.67,-124.3 1203.67,-127.8 1213.67,-131.3 1213.67,-124.3"/>
</g>
<!-- LoginComponent -->
<g id="node6" class="node">
<title>LoginComponent</title>
<polygon fill="#ffffb3" stroke="black" points="1497.28,-84.8 1382.72,-84.8 1382.72,-48.8 1497.28,-48.8 1497.28,-84.8"/>
<text text-anchor="middle" x="1440" y="-62.6" font-family="Times,serif" font-size="14.00">LoginComponent</text>
</g>
<!-- LoginComponent&#45;&gt;AppModule -->
<g id="edge6" class="edge">
<title>LoginComponent&#45;&gt;AppModule</title>
<path fill="none" stroke="black" d="M1440,-84.83C1440,-101.2 1440,-122.8 1440,-122.8 1440,-122.8 1213.92,-122.8 1213.92,-122.8"/>
<polygon fill="black" stroke="black" points="1213.92,-119.3 1203.92,-122.8 1213.92,-126.3 1213.92,-119.3"/>
</g>
<!-- MenuComponent -->
<g id="node7" class="node">
<title>MenuComponent</title>
<polygon fill="#ffffb3" stroke="black" points="1364.99,-84.8 1251.01,-84.8 1251.01,-48.8 1364.99,-48.8 1364.99,-84.8"/>
<text text-anchor="middle" x="1308" y="-62.6" font-family="Times,serif" font-size="14.00">MenuComponent</text>
</g>
<!-- MenuComponent&#45;&gt;AppModule -->
<g id="edge7" class="edge">
<title>MenuComponent&#45;&gt;AppModule</title>
<path fill="none" stroke="black" d="M1308,-84.99C1308,-99.98 1308,-118.8 1308,-118.8 1308,-118.8 1213.84,-118.8 1213.84,-118.8"/>
<polygon fill="black" stroke="black" points="1213.84,-115.3 1203.84,-118.8 1213.84,-122.3 1213.84,-115.3"/>
</g>
<!-- PostDeleteComponent -->
<g id="node8" class="node">
<title>PostDeleteComponent</title>
<polygon fill="#ffffb3" stroke="black" points="1232.98,-84.8 1091.02,-84.8 1091.02,-48.8 1232.98,-48.8 1232.98,-84.8"/>
<text text-anchor="middle" x="1162" y="-62.6" font-family="Times,serif" font-size="14.00">PostDeleteComponent</text>
</g>
<!-- PostDeleteComponent&#45;&gt;AppModule -->
<g id="edge8" class="edge">
<title>PostDeleteComponent&#45;&gt;AppModule</title>
<path fill="none" stroke="black" d="M1162,-84.91C1162,-84.91 1162,-103.79 1162,-103.79"/>
<polygon fill="black" stroke="black" points="1158.5,-103.79 1162,-113.79 1165.5,-103.79 1158.5,-103.79"/>
</g>
<!-- PostEditComponent -->
<g id="node9" class="node">
<title>PostEditComponent</title>
<polygon fill="#ffffb3" stroke="black" points="1073.28,-84.8 944.72,-84.8 944.72,-48.8 1073.28,-48.8 1073.28,-84.8"/>
<text text-anchor="middle" x="1009" y="-62.6" font-family="Times,serif" font-size="14.00">PostEditComponent</text>
</g>
<!-- PostEditComponent&#45;&gt;AppModule -->
<g id="edge9" class="edge">
<title>PostEditComponent&#45;&gt;AppModule</title>
<path fill="none" stroke="black" d="M1009,-84.99C1009,-99.98 1009,-118.8 1009,-118.8 1009,-118.8 1110.19,-118.8 1110.19,-118.8"/>
<polygon fill="black" stroke="black" points="1110.19,-122.3 1120.19,-118.8 1110.19,-115.3 1110.19,-122.3"/>
</g>
<!-- RegisterComponent -->
<g id="node10" class="node">
<title>RegisterComponent</title>
<polygon fill="#ffffb3" stroke="black" points="926.98,-84.8 799.02,-84.8 799.02,-48.8 926.98,-48.8 926.98,-84.8"/>
<text text-anchor="middle" x="863" y="-62.6" font-family="Times,serif" font-size="14.00">RegisterComponent</text>
</g>
<!-- RegisterComponent&#45;&gt;AppModule -->
<g id="edge10" class="edge">
<title>RegisterComponent&#45;&gt;AppModule</title>
<path fill="none" stroke="black" d="M863,-84.83C863,-101.2 863,-122.8 863,-122.8 863,-122.8 1110.11,-122.8 1110.11,-122.8"/>
<polygon fill="black" stroke="black" points="1110.11,-126.3 1120.11,-122.8 1110.11,-119.3 1110.11,-126.3"/>
</g>
<!-- ThemeComponent -->
<g id="node11" class="node">
<title>ThemeComponent</title>
<polygon fill="#ffffb3" stroke="black" points="781.2,-84.8 660.8,-84.8 660.8,-48.8 781.2,-48.8 781.2,-84.8"/>
<text text-anchor="middle" x="721" y="-62.6" font-family="Times,serif" font-size="14.00">ThemeComponent</text>
</g>
<!-- ThemeComponent&#45;&gt;AppModule -->
<g id="edge11" class="edge">
<title>ThemeComponent&#45;&gt;AppModule</title>
<path fill="none" stroke="black" d="M721,-85.1C721,-103.07 721,-127.8 721,-127.8 721,-127.8 1110.11,-127.8 1110.11,-127.8"/>
<polygon fill="black" stroke="black" points="1110.11,-131.3 1120.11,-127.8 1110.11,-124.3 1110.11,-131.3"/>
</g>
<!-- ThemeDeleteComponent -->
<g id="node12" class="node">
<title>ThemeDeleteComponent</title>
<polygon fill="#ffffb3" stroke="black" points="643.24,-84.8 486.76,-84.8 486.76,-48.8 643.24,-48.8 643.24,-84.8"/>
<text text-anchor="middle" x="565" y="-62.6" font-family="Times,serif" font-size="14.00">ThemeDeleteComponent</text>
</g>
<!-- ThemeDeleteComponent&#45;&gt;AppModule -->
<g id="edge12" class="edge">
<title>ThemeDeleteComponent&#45;&gt;AppModule</title>
<path fill="none" stroke="black" d="M565,-84.91C565,-104.14 565,-131.8 565,-131.8 565,-131.8 1110.02,-131.8 1110.02,-131.8"/>
<polygon fill="black" stroke="black" points="1110.02,-135.3 1120.02,-131.8 1110.02,-128.3 1110.02,-135.3"/>
</g>
<!-- ThemeEditComponent -->
<g id="node13" class="node">
<title>ThemeEditComponent</title>
<polygon fill="#ffffb3" stroke="black" points="468.54,-84.8 325.46,-84.8 325.46,-48.8 468.54,-48.8 468.54,-84.8"/>
<text text-anchor="middle" x="397" y="-62.6" font-family="Times,serif" font-size="14.00">ThemeEditComponent</text>
</g>
<!-- ThemeEditComponent&#45;&gt;AppModule -->
<g id="edge13" class="edge">
<title>ThemeEditComponent&#45;&gt;AppModule</title>
<path fill="none" stroke="black" d="M397,-84.83C397,-105.57 397,-136.8 397,-136.8 397,-136.8 1110.33,-136.8 1110.33,-136.8"/>
<polygon fill="black" stroke="black" points="1110.33,-140.3 1120.33,-136.8 1110.33,-133.3 1110.33,-140.3"/>
</g>
<!-- UserEditComponent -->
<g id="node14" class="node">
<title>UserEditComponent</title>
<polygon fill="#ffffb3" stroke="black" points="307.59,-84.8 176.41,-84.8 176.41,-48.8 307.59,-48.8 307.59,-84.8"/>
<text text-anchor="middle" x="242" y="-62.6" font-family="Times,serif" font-size="14.00">UserEditComponent</text>
</g>
<!-- UserEditComponent&#45;&gt;AppModule -->
<g id="edge14" class="edge">
<title>UserEditComponent&#45;&gt;AppModule</title>
<path fill="none" stroke="black" d="M242,-85.09C242,-107.01 242,-140.8 242,-140.8 242,-140.8 1110.08,-140.8 1110.08,-140.8"/>
<polygon fill="black" stroke="black" points="1110.08,-144.3 1120.08,-140.8 1110.08,-137.3 1110.08,-144.3"/>
</g>
<!-- AppComponent  -->
<g id="node17" class="node">
<title>AppComponent </title>
<polygon fill="#80b1d3" stroke="black" points="1216.44,-214.8 1107.56,-214.8 1107.56,-178.8 1216.44,-178.8 1216.44,-214.8"/>
<text text-anchor="middle" x="1162" y="-192.6" font-family="Times,serif" font-size="14.00">AppComponent </text>
</g>
<!-- AppModule&#45;&gt;AppComponent  -->
<g id="edge16" class="edge">
<title>AppModule&#45;&gt;AppComponent </title>
<path fill="none" stroke="black" stroke-dasharray="1,5" d="M1162,-149.91C1162,-149.91 1162,-168.79 1162,-168.79"/>
<polygon fill="black" stroke="black" points="1158.5,-168.79 1162,-178.79 1165.5,-168.79 1158.5,-168.79"/>
</g>
<!-- AppRoutingModule -->
<g id="node16" class="node">
<title>AppRoutingModule</title>
<polygon fill="#8dd3c7" stroke="black" points="152.27,-84.8 149.27,-88.8 128.27,-88.8 125.27,-84.8 23.73,-84.8 23.73,-48.8 152.27,-48.8 152.27,-84.8"/>
<text text-anchor="middle" x="88" y="-62.6" font-family="Times,serif" font-size="14.00">AppRoutingModule</text>
</g>
<!-- AppRoutingModule&#45;&gt;AppModule -->
<g id="edge15" class="edge">
<title>AppRoutingModule&#45;&gt;AppModule</title>
<path fill="none" stroke="black" d="M88,-85.12C88,-108.46 88,-145.8 88,-145.8 88,-145.8 1110.23,-145.8 1110.23,-145.8"/>
<polygon fill="black" stroke="black" points="1110.23,-149.3 1120.23,-145.8 1110.23,-142.3 1110.23,-149.3"/>
</g>
</g>
</svg>
